<?xml version="1.0" encoding="UTF-8"?>
<svg id="Layer_1" data-name="Layer 1" xmlns="http://www.w3.org/2000/svg" viewBox="0 0 1500 344.1">
  <defs>
    <style>
      .cls-1 {
        fill: #fff;
      }
    </style>
  </defs>
  <g>
    <path class="cls-1" d="M380.95,204.81h-25.48s-24.16-90.68-25.01-93.34c-5.19-16.27-14.9-30.51-27.64-41.27-1.15-.98-2.33-1.92-3.53-2.84-21.21-16.15-50.39-15.52-71.11.3,8.96,11.23,15.83,24.18,20.06,38.29v.02s26.5,98.88,26.5,98.88h-25.48c-2.71-10.15-24.22-90.86-25.02-93.35-3.11-9.75-7.85-18.78-13.89-26.76l-36.98,36.98h0l-7.38,7.38,37.81,3.57v12.28l-40.96,3.86,26.23,31.69-8.68,8.68-31.7-26.23-3.86,40.96h-12.28l-3.56-37.81-67.42,67.42-22.02-38.14c-10.29-18.02-15.82-39.1-14.87-61.54,2.5-58.99,50.64-106.92,109.64-109.18,19.79-.76,38.51,3.52,54.98,11.66h0c2.55,1.26,5.05,2.61,7.48,4.05l-18.11,18.1c-2.6-1.3-5.28-2.47-8.01-3.51h0c-10.65-4.05-22.26-6.13-34.41-5.79-46.9,1.3-85.44,39.56-87.07,86.44-.61,17.45,3.77,33.83,11.82,47.83l5.82,10.08,44.98-44.98-38.23-3.61v-12.28l40.96-3.86-26.23-31.69,8.68-8.68,31.69,26.23,3.86-40.96h12.28l3.61,38.23,56.44-56.43c1.9-1.9,3.88-3.7,5.92-5.38,29.29-24.2,71.84-25.89,102.77-2.71,2.03,1.53,4.07,3.15,6.09,4.88,16.31,13.95,28.49,32.56,34.81,53.64l26.5,98.89Z"/>
    <path class="cls-1" d="M355.48,204.81v41.61c0,19.82-17.89,34.84-37.41,31.4l-25.05-4.41,12.3,46.12h-113.36v-24.57h81.32l-6.99-26.21c-3.26-12.23,7.28-23.71,19.74-21.51h0s36.55,6.45,36.55,6.45c4.34.76,8.31-2.57,8.31-6.98v-41.9h24.58Z"/>
    <path class="cls-1" d="M249.25,204.85v41.41c0,19.82-17.9,34.84-37.42,31.39l-36.25-6.4v48.27H39.47s14.91-55.66,14.91-55.66l34.75-34.75-17.64,65.84h79.53v-27.91c0-13.07,11.81-22.97,24.68-20.69l40.68,7.21c4.34.77,8.32-2.57,8.32-6.98v-41.68l24.56-.05Z"/>
  </g>
  <g>
    <g>
      <path class="cls-1" d="M840,67.07l-6.36,36.06h17.63c1.35,0,2.51-.97,2.75-2.31l5.38-30.49c2.41-13.68-8.11-26.21-22-26.21h-33.81c-1.54,0-2.79,1.25-2.79,2.79v16.88h36.45c1.74,0,3.05,1.57,2.75,3.28Z"/>
      <path class="cls-1" d="M846.38,162.14h14.3c1.74,0,3.05-1.57,2.75-3.28l-5.95-33.75c-.24-1.33-1.39-2.31-2.75-2.31h-17.63l6.53,37.03c.24,1.33,1.39,2.31,2.75,2.31Z"/>
      <path class="cls-1" d="M783.92,162.14h14.08c1.54,0,2.79-1.25,2.79-2.79v-36.55h36.31s-3.47-19.67-3.47-19.67h-32.84s0-39.34,0-39.34h-16.88c-1.54,0-2.79,1.25-2.79,2.79v92.76c0,1.54,1.25,2.79,2.79,2.79Z"/>
    </g>
    <g>
      <path class="cls-1" d="M1267.91,67.07l-12.89,73.09c-.24,1.33-1.39,2.31-2.75,2.31h-27.16v16.88c0,1.54,1.25,2.79,2.79,2.79h24.47c10.84,0,20.11-7.78,22-18.46l12.93-73.34c2.41-13.68-8.11-26.21-22-26.21h-37.41c-1.54,0-2.79,1.25-2.79,2.79v16.88h40.05c1.74,0,3.05,1.57,2.75,3.28Z"/>
      <path class="cls-1" d="M1225.11,63.8h-16.88c-1.54,0-2.79,1.25-2.79,2.79v73.09c0,1.54,1.25,2.79,2.79,2.79h16.88V63.8Z"/>
    </g>
    <g>
      <path class="cls-1" d="M509.41,63.79v95.54c0,1.56-1.23,2.79-2.79,2.79h-14.07c-1.56,0-2.79-1.23-2.79-2.79v-92.75c0-1.54,1.23-2.79,2.79-2.79h16.86Z"/>
      <path class="cls-1" d="M568.12,142.47v16.86c0,1.56-1.25,2.81-2.79,2.81h-7.4c-10.84,0-20.12-7.8-21.99-18.47l-13.68-77.57c-.23-1.34-1.39-2.31-2.74-2.31h-10.1v-16.88c0-1.54,1.25-2.79,2.81-2.79h7.38c10.85,0,20.12,7.78,22.01,18.45l13.66,77.59c.25,1.32,1.39,2.31,2.75,2.31h10.09Z"/>
      <path class="cls-1" d="M587.79,46.91v92.75c0,1.56-1.25,2.81-2.79,2.81h-16.88V46.91c0-1.54,1.25-2.79,2.79-2.79h14.09c1.54,0,2.79,1.25,2.79,2.79Z"/>
    </g>
    <g>
      <path class="cls-1" d="M509.41,201.54v95.54c0,1.56-1.23,2.79-2.79,2.79h-14.07c-1.56,0-2.79-1.23-2.79-2.79v-92.75c0-1.54,1.23-2.79,2.79-2.79h16.86Z"/>
      <path class="cls-1" d="M568.12,280.22v16.86c0,1.56-1.25,2.81-2.79,2.81h-7.4c-10.84,0-20.12-7.8-21.99-18.47l-13.68-77.57c-.23-1.34-1.39-2.31-2.74-2.31h-10.1v-16.88c0-1.54,1.25-2.79,2.81-2.79h7.38c10.85,0,20.12,7.78,22.01,18.45l13.66,77.59c.25,1.32,1.39,2.31,2.75,2.31h10.09Z"/>
      <path class="cls-1" d="M587.79,184.66v92.75c0,1.56-1.25,2.81-2.79,2.81h-16.88v-95.56c0-1.54,1.25-2.79,2.79-2.79h14.09c1.54,0,2.79,1.25,2.79,2.79Z"/>
    </g>
    <g>
      <path class="cls-1" d="M1113.96,63.8v95.54c0,1.56-1.23,2.79-2.79,2.79h-14.07c-1.56,0-2.79-1.23-2.79-2.79v-92.75c0-1.54,1.23-2.79,2.79-2.79h16.86Z"/>
      <path class="cls-1" d="M1172.67,142.47v16.86c0,1.56-1.25,2.81-2.79,2.81h-7.4c-10.84,0-20.12-7.8-21.99-18.47l-13.68-77.57c-.23-1.34-1.39-2.31-2.74-2.31h-10.1v-16.88c0-1.54,1.25-2.79,2.81-2.79h7.38c10.85,0,20.12,7.78,22.01,18.45l13.66,77.59c.25,1.32,1.39,2.31,2.75,2.31h10.09Z"/>
      <path class="cls-1" d="M1192.34,46.92v92.75c0,1.56-1.25,2.81-2.79,2.81h-16.88V46.92c0-1.54,1.25-2.79,2.79-2.79h14.09c1.54,0,2.79,1.25,2.79,2.79Z"/>
    </g>
    <g>
      <path class="cls-1" d="M1216.7,201.54v95.54c0,1.56-1.23,2.79-2.79,2.79h-14.07c-1.56,0-2.79-1.23-2.79-2.79v-92.75c0-1.54,1.23-2.79,2.79-2.79h16.86Z"/>
      <path class="cls-1" d="M1275.41,280.22v16.86c0,1.56-1.25,2.81-2.79,2.81h-7.4c-10.84,0-20.12-7.8-21.99-18.47l-13.68-77.57c-.23-1.34-1.39-2.31-2.74-2.31h-10.1v-16.88c0-1.54,1.25-2.79,2.81-2.79h7.38c10.85,0,20.12,7.78,22.01,18.45l13.66,77.59c.25,1.32,1.39,2.31,2.75,2.31h10.09Z"/>
      <path class="cls-1" d="M1295.07,184.66v92.75c0,1.56-1.25,2.81-2.79,2.81h-16.88v-95.56c0-1.54,1.25-2.79,2.79-2.79h14.09c1.54,0,2.79,1.25,2.79,2.79Z"/>
    </g>
    <g>
      <path class="cls-1" d="M1037.2,122.8h13.96l3.47-19.67h-17.34c-1.35,0-2.51-.97-2.75-2.31l-9.59-54.39c-.24-1.33-1.39-2.31-2.75-2.31h-14.3c-1.74,0-3.05,1.57-2.75,3.28l10.05,56.95c1.88,10.67,11.16,18.45,21.99,18.45Z"/>
      <path class="cls-1" d="M1075.02,100.83l9.42-53.42c.3-1.71-1.01-3.28-2.75-3.28h-14.3c-1.35,0-2.51.97-2.75,2.31l-10,56.7h17.63c1.35,0,2.51-.97,2.75-2.31Z"/>
      <path class="cls-1" d="M1051.16,122.8l-6.36,36.06c-.3,1.71,1.01,3.28,2.75,3.28h14.3c1.35,0,2.51-.97,2.75-2.31l5.95-33.75c.3-1.71-1.01-3.28-2.75-3.28h-16.65Z"/>
    </g>
    <g>
      <path class="cls-1" d="M876.48,162.14h12.6c1.76,0,3.27-1.27,3.58-3l16.81-95.34h-16.92c-1.76,0-3.27,1.27-3.58,3l-16.06,91.08c-.39,2.22,1.32,4.26,3.58,4.26Z"/>
      <path class="cls-1" d="M988.71,66.1c-.24-1.33-1.39-2.31-2.75-2.31h-17.63l-3.06-17.36c-.24-1.33-1.39-2.31-2.75-2.31h-11.07c-1.54,0-2.79,1.25-2.79,2.79v16.88h19.67l16.94,96.04c.24,1.33,1.39,2.31,2.75,2.31h14.3c1.74,0,3.05-1.57,2.75-3.28l-16.36-92.76Z"/>
      <path class="cls-1" d="M929.13,66.59v92.76c0,1.54,1.25,2.79,2.79,2.79h14.08c1.54,0,2.79-1.25,2.79-2.79v-92.89c0-12.34-10-22.34-22.34-22.34h-14.21c-1.54,0-2.79,1.25-2.79,2.79v16.88h16.88c1.54,0,2.79,1.25,2.79,2.79Z"/>
    </g>
    <g>
      <path class="cls-1" d="M621.49,44.13h-17.8c-1.54,0-2.79,1.25-2.79,2.79v14.08c0,1.54,1.25,2.79,2.79,2.79h26.71l-6.28-17.81c-.39-1.12-1.45-1.86-2.63-1.86Z"/>
      <path class="cls-1" d="M630.4,159.35c0,1.54,1.25,2.79,2.79,2.79h14.08c1.54,0,2.79-1.25,2.79-2.79V63.8h-19.67v95.55Z"/>
      <path class="cls-1" d="M676.78,44.13h-23.92c-1.54,0-2.79,1.25-2.79,2.79v16.88h26.71c1.54,0,2.79-1.25,2.79-2.79v-14.08c0-1.54-1.25-2.79-2.79-2.79Z"/>
    </g>
    <g>
      <path class="cls-1" d="M768.13,61v-14.08c0-1.54-1.25-2.79-2.79-2.79h-53.7c-1.54,0-2.79,1.25-2.79,2.79v16.88h56.49c1.54,0,2.79-1.25,2.79-2.79Z"/>
      <path class="cls-1" d="M711.74,162.14h53.49c1.54,0,2.79-1.25,2.79-2.79v-14.08c0-1.54-1.25-2.79-2.79-2.79h-53.36c-1.54,0-2.79-1.25-2.79-2.79v-27.91c2.27.77,4.7,1.2,7.21,1.2h29.34c1.54,0,2.79-1.25,2.79-2.79v-14.08c0-1.54-1.25-2.79-2.79-2.79h-29.23c-1.35,0-2.51-.97-2.75-2.31l-4.79-27.2h-16.65c-1.74,0-3.05,1.57-2.75,3.28l4.84,27.44c1.44,8.18,7.23,14.66,14.73,17.24h-16.82c-1.54,0-2.79,1.25-2.79,2.79v25.26c0,12.34,10,22.33,22.33,22.33Z"/>
    </g>
    <path class="cls-1" d="M443.01,162.14h14.3c1.36,0,2.51-.97,2.75-2.3l.55-3.14s.03-.09.03-.14l19.24-109.15c.3-1.71-1.01-3.28-2.75-3.28h-14.3c-1.36,0-2.51.97-2.75,2.3l-19.82,112.43c-.3,1.71,1.01,3.28,2.75,3.28Z"/>
    <g>
      <path class="cls-1" d="M840,204.82l-6.36,36.06h17.63c1.35,0,2.51-.97,2.75-2.31l5.38-30.48c2.41-13.68-8.11-26.21-22-26.21h-33.81c-1.54,0-2.79,1.25-2.79,2.79v16.88h36.45c1.74,0,3.05,1.57,2.75,3.28Z"/>
      <path class="cls-1" d="M857.49,262.86c-.24-1.33-1.39-2.31-2.75-2.31h-17.63l6.53,37.03c.24,1.33,1.39,2.31,2.75,2.31h14.3c1.74,0,3.05-1.57,2.75-3.28l-5.95-33.75Z"/>
      <path class="cls-1" d="M800.8,240.88v-39.34h-16.88c-1.54,0-2.79,1.25-2.79,2.79v92.76c0,1.54,1.25,2.79,2.79,2.79h14.09c1.54,0,2.79-1.25,2.79-2.79v-36.55h36.31l-3.47-19.67h-32.84Z"/>
    </g>
    <g>
      <path class="cls-1" d="M979.24,204.55l-16.06,91.08c-.39,2.22,1.32,4.26,3.58,4.26h12.6c1.76,0,3.27-1.27,3.58-3l16.81-95.34h-16.92c-1.76,0-3.27,1.27-3.58,3Z"/>
      <path class="cls-1" d="M1078.99,203.85c-.24-1.33-1.39-2.31-2.75-2.31h-17.63l16.94,96.04c.24,1.33,1.39,2.31,2.75,2.31h14.3c1.74,0,3.05-1.57,2.75-3.28l-16.36-92.76Z"/>
      <path class="cls-1" d="M1052.8,181.88h-11.07c-1.54,0-2.79,1.25-2.79,2.79v16.88h19.67l-3.06-17.36c-.24-1.33-1.39-2.31-2.75-2.31Z"/>
      <path class="cls-1" d="M1016.75,181.88h-14.21c-1.54,0-2.79,1.25-2.79,2.79v16.88h16.88c1.54,0,2.79,1.25,2.79,2.79v92.76c0,1.54,1.25,2.79,2.79,2.79h14.08c1.54,0,2.79-1.25,2.79-2.79v-92.89c0-12.34-10-22.33-22.34-22.33Z"/>
    </g>
    <g>
      <path class="cls-1" d="M713.3,181.88h-17.8c-1.54,0-2.79,1.25-2.79,2.79v14.08c0,1.54,1.25,2.79,2.79,2.79h26.71l-6.28-17.81c-.39-1.12-1.45-1.86-2.63-1.86Z"/>
      <path class="cls-1" d="M768.6,181.88h-23.92c-1.54,0-2.79,1.25-2.79,2.79v16.88h26.71c1.54,0,2.79-1.25,2.79-2.79v-14.08c0-1.54-1.25-2.79-2.79-2.79Z"/>
      <path class="cls-1" d="M722.22,297.1c0,1.54,1.25,2.79,2.79,2.79h14.09c1.54,0,2.79-1.25,2.79-2.79v-95.55h-19.67v95.55Z"/>
    </g>
    <g>
      <path class="cls-1" d="M1328.77,181.88h-17.8c-1.54,0-2.79,1.25-2.79,2.79v14.08c0,1.54,1.25,2.79,2.79,2.79h26.71l-6.28-17.81c-.39-1.12-1.45-1.86-2.63-1.86Z"/>
      <path class="cls-1" d="M1384.07,181.88h-23.92c-1.54,0-2.79,1.25-2.79,2.79v16.88h26.71c1.54,0,2.79-1.25,2.79-2.79v-14.08c0-1.54-1.25-2.79-2.79-2.79Z"/>
      <path class="cls-1" d="M1337.68,297.1c0,1.54,1.25,2.79,2.79,2.79h14.09c1.54,0,2.79-1.25,2.79-2.79v-95.55h-19.67v95.55Z"/>
    </g>
    <g>
      <path class="cls-1" d="M1181.15,181.88h-53.7c-1.54,0-2.79,1.25-2.79,2.79v16.88h56.49c1.54,0,2.79-1.25,2.79-2.79v-14.09c0-1.54-1.25-2.79-2.79-2.79Z"/>
      <path class="cls-1" d="M1105.27,204.82l4.84,27.44c1.44,8.18,7.23,14.66,14.73,17.24h-16.82c-1.54,0-2.79,1.25-2.79,2.79v25.26c0,12.34,10,22.34,22.34,22.34h53.49c1.54,0,2.79-1.25,2.79-2.79v-14.08c0-1.54-1.25-2.79-2.79-2.79h-53.36c-1.54,0-2.79-1.25-2.79-2.79v-27.91c2.27.77,4.7,1.2,7.21,1.2h29.34c1.54,0,2.79-1.25,2.79-2.79v-14.08c0-1.54-1.25-2.79-2.79-2.79h-29.23c-1.35,0-2.51-.97-2.75-2.31l-4.79-27.2h-16.65c-1.74,0-3.05,1.57-2.75,3.28Z"/>
    </g>
    <g>
      <path class="cls-1" d="M959.49,181.88h-12.6c-1.76,0-3.27,1.27-3.58,3l-16.81,95.34h16.92c1.76,0,3.27-1.27,3.58-3l16.06-91.08c.39-2.22-1.32-4.26-3.58-4.26Z"/>
      <path class="cls-1" d="M892.52,277.43v-92.76c0-1.54-1.25-2.79-2.79-2.79h-14.09c-1.54,0-2.79,1.25-2.79,2.79v92.89c0,12.34,10,22.34,22.34,22.34h28.54c1.54,0,2.79-1.25,2.79-2.79v-16.88h-31.2c-1.54,0-2.79-1.25-2.79-2.79Z"/>
    </g>
    <path class="cls-1" d="M477.14,181.88h-14.3c-1.36,0-2.51.97-2.75,2.3l-19.82,112.43c-.3,1.71,1.01,3.28,2.75,3.28h14.3c1.36,0,2.51-.97,2.75-2.3l.55-3.14s.03-.09.03-.14l19.24-109.15c.3-1.71-1.01-3.28-2.75-3.28Z"/>
    <g>
      <path class="cls-1" d="M676.81,181.8h-50.09c-1.34,0-2.5.96-2.74,2.27l-3.28,17.41h56.1c1.54,0,2.79-1.25,2.79-2.79v-14.09c0-1.54-1.25-2.79-2.79-2.79Z"/>
      <path class="cls-1" d="M600.87,283.08v14.09c0,1.54,1.25,2.79,2.79,2.79h50.25c1.34,0,2.5-.96,2.74-2.27l3.28-17.41h-56.27c-1.54,0-2.79,1.25-2.79,2.79Z"/>
      <path class="cls-1" d="M601.04,204.27v24.11c0,12.34,10,22.34,22.33,22.34h33.77c1.54,0,2.79,1.25,2.79,2.79v26.78h16.88c1.54,0,2.79-1.25,2.79-2.79v-24.11c0-12.34-10-22.34-22.33-22.34h-33.77c-1.54,0-2.79-1.25-2.79-2.79v-26.78h-16.88c-1.54,0-2.79,1.25-2.79,2.79Z"/>
    </g>
    <g>
      <path class="cls-1" d="M1475.43,198.68v-14.09c0-1.54-1.25-2.79-2.79-2.79h-50.09c-1.34,0-2.5.96-2.74,2.27l-3.28,17.41h56.1c1.54,0,2.79-1.25,2.79-2.79Z"/>
      <path class="cls-1" d="M1396.69,283.08v14.09c0,1.54,1.25,2.79,2.79,2.79h50.25c1.34,0,2.5-.96,2.74-2.27l3.28-17.41h-56.27c-1.54,0-2.79,1.25-2.79,2.79Z"/>
      <path class="cls-1" d="M1399.65,201.48c-1.54,0-2.79,1.25-2.79,2.79v24.11c0,12.34,10,22.34,22.33,22.34h33.77c1.54,0,2.79,1.25,2.79,2.79v26.78h16.88c1.54,0,2.79-1.25,2.79-2.79v-24.11c0-12.34-10-22.34-22.34-22.34h-33.77c-1.54,0-2.79-1.25-2.79-2.79v-26.78h-16.88Z"/>
    </g>
  </g>
</svg>